<?xml version="1.0" encoding="utf-8"?>
<!DOCTYPE svg PUBLIC "-//W3C//DTD SVG 1.0//EN" "http://www.w3.org/TR/2001/REC-SVG-20010904/DTD/svg10.dtd">
<svg version="1.0" xmlns="http://www.w3.org/2000/svg" width="510px" height="489px" viewBox="0 0 510 489" preserveAspectRatio="xMidYMid meet">
 <g fill="none">
  <path d="M0 387.5 c0 -100.8 0 -101.5 2 -101.5 1.1 0 2 0.4 2 1 0 2 6.6 8.4 10.5 10.1 5.6 2.6 10.2 2.3 16.4 -0.7 5.3 -2.7 9.4 -7.4 10.6 -12.5 l0.6 -2.6 19.7 -0.6 c17.1 -0.5 19.8 -0.8 20.9 -2.3 1.8 -2.5 1.8 -36 0.1 -36.6 -3.5 -1.3 -3.8 0.2 -3.8 16.8 l0 16.4 -18 0 -18 0 0 -27.6 0 -27.5 -2.7 0.3 -2.8 0.3 -0.1 28.5 c-0.2 41.5 0 38.4 -3 41.9 -2.5 3.1 -2.7 3.1 -11.7 3.1 -14.1 -0.1 -15.7 -2.1 -15.7 -19.4 l0 -11.6 -3.5 0 -3.5 0 0 -131.5 0 -131.5 255 0 255 0 0 244.5 0 244.5 -255 0 -255 0 0 -101.5z m256.5 52.7 c3.9 -1.9 14.2 -7.9 23 -13.2 8.8 -5.3 24.6 -14.6 35.2 -20.6 l19.2 -10.9 -7.4 -0.7 c-8.4 -0.8 -11.5 -2.4 -15.6 -8.2 -2.7 -3.6 -2.9 -4.6 -2.9 -12.8 0 -9.9 1.5 -14.5 5.8 -17.8 1.3 -1.1 2.2 -2 1.8 -2 -1 0 -13.5 8.4 -28.1 18.9 -20.6 14.8 -42.1 25.1 -52.5 25.1 l-4.8 0 -8.9 -14.7 c-5 -8.2 -13.2 -21.7 -18.3 -30 l-9.3 -15.3 -8.4 0 -8.4 0 7.9 15.3 c10.1 19.3 14 26.2 29.7 52.7 16.7 28.3 19.2 31.9 24.9 35.7 5.6 3.8 6.8 3.7 17.1 -1.5z m101.5 -58.9 c12.7 -7.5 55.4 -30.7 64 -34.7 8.3 -3.9 13.8 -4.8 41 -7 16.2 -1.3 15.5 -1.4 -36.8 -1.5 -31.8 0 -57.2 0.3 -63 1 -11.9 1.3 -24.3 4.2 -33.1 7.9 -6.7 2.7 -14.3 6.7 -10.6 5.5 4.4 -1.4 12.5 -1.7 17.1 -0.6 5.5 1.3 10.3 5 12.7 9.8 2.3 4.3 2.3 18.2 0.1 22.5 -0.9 1.6 -1.2 2.8 -0.7 2.6 0.4 -0.3 4.6 -2.7 9.3 -5.5z m-177.3 -75.9 c5 -2 11.9 -9.7 14.2 -16 1.2 -3 2.1 -6.1 2.1 -6.9 0 -1.8 -3.3 -1.6 31.6 -1.8 23 -0.2 29.4 -0.5 30.7 -1.6 1.5 -1.2 1.7 -3.8 1.7 -19.2 0 -21 0.7 -19.9 -12.5 -19.9 -7.5 0 -9.4 0.4 -13.6 2.6 -5.2 2.9 -9.3 8 -10.9 13.5 -0.6 1.9 -1 6.9 -1 11.1 0 4.2 -0.4 7.9 -0.9 8.2 -0.5 0.3 -5.9 0.3 -12 -0.1 l-11.1 -0.6 0 -14.7 c0 -13.4 -0.2 -15 -2.1 -17.4 -1.9 -2.5 -2.5 -2.6 -10.7 -2.6 -12.7 0.1 -19.8 4 -23.6 13.2 -2 4.8 -2.2 23 -0.3 24.6 1.9 1.6 13 3.2 22 3.2 l7.7 0 0 4 c0 9.2 -8.1 18 -16.6 18 -1.9 0 -2.4 0.5 -2.4 2.6 0 2.8 0.6 2.7 7.7 -0.2z m126.8 0.2 c6.8 -3.1 12.5 -9.8 15.3 -17.8 l2.3 -6.5 20.9 -0.7 c11.5 -0.4 21.3 -0.5 21.7 -0.3 0.5 0.3 6.1 0.1 12.6 -0.4 8.1 -0.7 12.4 -0.6 13.7 0.1 1.5 0.8 5.1 0.7 12.6 -0.1 6.4 -0.7 10.9 -0.8 11.4 -0.3 0.6 0.6 17 0.8 39.2 0.7 37.7 -0.3 38.3 -0.3 40.1 -2.4 1.5 -1.8 1.7 -4.4 1.7 -18.2 0 -20.2 0.3 -19.7 -12.7 -19.7 -10.3 0 -14.9 1.6 -19.8 6.7 -4.7 5 -5.8 8.3 -6.3 18.6 l-0.5 9.8 -11.6 -0.3 -11.6 -0.3 -0.5 -16.5 c-0.5 -15.7 -0.6 -16.5 -2.5 -16.5 -1.9 0 -2 0.8 -2.5 16.5 l-0.5 16.5 -9.2 0.3 -9.3 0.3 0 -16.5 c0 -15.6 -0.1 -16.5 -2 -17.1 -1.1 -0.3 -2.4 -0.3 -3 0 -0.6 0.4 -1 7.1 -1 17.1 l0 16.5 -9.2 -0.3 -9.3 -0.3 -0.5 -16.5 c-0.5 -16.2 -0.5 -16.5 -2.7 -16.8 l-2.3 -0.3 0 15.4 c0 8.6 -0.3 16.2 -0.6 17.1 -0.5 1.3 -2.6 1.6 -12.5 1.6 l-11.9 0 0 -16.4 c0 -15.6 -0.1 -16.5 -2 -17.1 -1.1 -0.3 -2.4 -0.3 -3 0 -0.6 0.4 -1 7.1 -1 17.1 l0 16.4 -12 0 -12 0 0 -6.3 c0 -3.5 -0.3 -9.8 -0.6 -14 -0.6 -7.1 -0.9 -7.7 -3 -7.7 -2.2 0 -2.2 0 -2.6 19.3 -0.3 15.8 -0.7 20 -2.2 23.7 -3.3 7.9 -9.6 13 -16.1 13 -2 0 -2.5 0.5 -2.5 2.5 0 3.1 1.1 3.1 7.5 0.1z m-243.2 -6.1 c0.1 -0.5 -0.6 -1.1 -1.5 -1.3 -1.1 -0.2 -1.8 0.3 -1.8 1.3 0 1.7 3 1.8 3.3 0z m15.5 -0.2 c0.2 -0.8 -0.5 -1.3 -1.7 -1.3 -1.2 0 -2.1 0.6 -2.1 1.6 0 1.8 3.1 1.5 3.8 -0.3z m56.5 1 c0.9 -0.9 -1.3 -3.4 -2.4 -2.7 -1.4 0.8 -1.1 3.4 0.4 3.4 0.8 0 1.7 -0.3 2 -0.7z m6.5 -21.6 c0.9 -0.7 1.2 -5.4 1 -19.1 -0.3 -17.3 -0.4 -18.1 -2.3 -18.1 -1.9 0 -2 0.8 -2.5 17 l-0.5 17 -3.7 0 c-2.1 -0.1 -9.2 -0.2 -15.8 -0.3 l-12 -0.2 0 -27.5 0 -27.5 -2.5 0 -2.5 0 0 28.9 c0 22 0.3 29.1 1.3 29.9 0.7 0.6 3 1.2 5.2 1.5 6.6 0.7 32.9 -0.5 34.3 -1.6z m203.4 -56.9 c-1.7 -1.7 -4.7 0.9 -3 2.9 1 1.2 1.3 1.2 2.7 -0.1 1.1 -1.2 1.2 -1.9 0.3 -2.8z m15.6 1.5 c-0.2 -1 -1 -1.8 -1.8 -1.8 -0.8 0 -1.6 0.8 -1.8 1.8 -0.2 1.2 0.3 1.7 1.8 1.7 1.5 0 2 -0.5 1.8 -1.7z m-254.8 -34.7 c-0.5 -1.3 -2.5 -5.6 -4.4 -9.5 -2.5 -4.9 -3.6 -8.4 -3.6 -11.5 0 -5.1 -1.8 -3.7 21.6 -17.1 9.3 -5.4 44.4 -25.9 78.1 -45.6 56 -32.9 61.5 -35.9 65.7 -35.9 4.3 0 4.6 0.2 7.9 5.3 1.9 2.8 11.2 17.5 20.8 32.5 23.8 37.4 36.8 57.7 45.4 70.9 l7.2 11.1 4.1 -2.1 c4 -2 4.1 -2.2 2.7 -4.4 -1.6 -2.4 -3.9 -6.3 -26 -44.8 -7.6 -13.2 -16.6 -28.7 -20 -34.5 -3.4 -5.8 -8.6 -15 -11.5 -20.5 -10.7 -19.9 -17.5 -28.6 -23.6 -30.1 -1.3 -0.4 -4.6 -0.1 -7.2 0.6 -7.9 2.1 -33.4 15.2 -56.7 29.1 -13.5 8 -59.6 34.8 -88.5 51.4 -29.8 17.1 -33.8 19.7 -37.1 25.1 -1.8 2.9 -2 4.4 -1.5 8.7 0.4 2.9 0.9 8 1.3 11.3 0.5 6.2 0.5 6.2 -2.3 6.8 -1.6 0.3 -16.4 1.5 -32.9 2.6 -16.5 1.1 -32 2.1 -34.5 2.3 -2.5 0.2 18.1 0.4 45.7 0.5 l50.3 0.2 -1 -2.4z"/>
  <path d="M166.7 275.4 c-1.1 -1.1 -0.8 -21.9 0.3 -24.8 1.6 -4.3 5.9 -5.7 16.8 -5.4 l9.7 0.3 0 15 0 15 -13.1 0.3 c-7.1 0.1 -13.3 -0.1 -13.7 -0.4z"/>
  <path d="M237.7 275.3 l-9.9 -0.4 0.4 -12 0.3 -12.1 3.3 -2.9 c3.1 -2.8 3.5 -2.9 13.7 -2.9 l10.6 0 -0.3 15.3 -0.3 15.2 -4 0.1 c-2.2 0 -8.4 -0.1 -13.8 -0.3z"/>
  <path d="M475.8 275.3 l-9.8 -0.4 0 -12 c0 -11.7 0.1 -12.1 2.7 -14.5 3.5 -3.2 5.1 -3.5 15.3 -3.2 l8.5 0.3 0 15 0 15 -3.5 0.1 c-1.9 0 -7.9 -0.1 -13.2 -0.3z"/>
 </g>
 <g fill="#82c04f">
  <path d="M297 305.5 c0 -5.2 0.1 -5.5 2.5 -5.5 6.5 0 12.8 -5.1 16.1 -13 1.5 -3.7 1.9 -7.9 2.2 -23.7 l0.4 -19.3 5.2 0 5.3 0 0.7 7.7 c0.3 4.2 0.6 10.5 0.6 14 l0 6.3 9 0 9 0 0.2 -16.7 0.3 -16.8 3.4 -0.3 c1.9 -0.2 4.4 -0.1 5.7 0.2 l2.4 0.6 0 16.5 0 16.5 8.9 0 c7.2 0 9 -0.3 9.5 -1.6 0.3 -0.9 0.6 -8.5 0.6 -17 l0 -15.5 5.3 0.3 5.2 0.3 0.5 16.5 0.5 16.5 6.2 0.3 6.3 0.3 0.2 -16.8 0.3 -16.8 3.4 -0.3 c1.9 -0.2 4.4 -0.1 5.7 0.2 l2.4 0.6 0 16.6 0 16.5 6.3 -0.3 6.2 -0.3 0.5 -16.5 0.5 -16.5 5 0 5 0 0.5 16.5 0.5 16.5 8.6 0.3 8.6 0.3 0.5 -9.8 c0.5 -10.3 1.6 -13.6 6.3 -18.6 5.3 -5.5 9.2 -6.7 22.8 -6.7 10.7 0 12.6 0.2 14 1.8 1.5 1.6 1.7 4.6 1.7 20.9 0 16.8 -0.2 19.3 -1.8 21.3 -1.7 2.1 -2 2.1 -42.7 2.5 -22.6 0.1 -41.4 -0.1 -42 -0.5 -0.5 -0.4 -4.4 -0.3 -8.5 0.2 -4.1 0.5 -9.5 0.7 -12 0.4 -2.5 -0.3 -7.9 -0.4 -12 -0.3 -4.1 0.1 -12.7 0.2 -19 0.2 -6.3 0 -17 0.1 -23.6 0.3 l-12.2 0.2 -2.3 6.6 c-4.2 11.8 -14.5 20.4 -24.6 20.4 l-4.3 0 0 -5.5z m192.8 -45.6 l-0.3 -11.4 -5.4 -0.3 c-7 -0.4 -9.1 0.2 -12.4 3.2 -2.5 2.4 -2.7 3 -2.7 11.5 l0 9 9.8 0.3 c5.3 0.2 10.1 0 10.5 -0.3 0.4 -0.3 0.6 -5.7 0.5 -12z"/>
  <path d="M340.2 227.8 c-0.7 -0.7 -1.2 -2.7 -1.2 -4.5 0 -4.3 3.6 -6.9 7.7 -5.6 6.4 2.2 4.8 11.3 -2 11.3 -1.8 0 -3.8 -0.5 -4.5 -1.2z"/>
  <path d="M355.6 227.4 c-2 -2 -2.1 -6.8 0 -8.4 2.3 -2 7.5 -1.6 9 0.5 3.2 4.3 0.6 9.5 -4.6 9.5 -1.6 0 -3.6 -0.7 -4.4 -1.6z"/>
  <path d="M0 191.1 c0 -3.6 -2.8 -3.2 42.5 -6.1 17.6 -1.2 33.1 -2.4 34.3 -2.7 2.1 -0.5 2.3 -1 1.8 -3.7 -0.4 -1.7 -0.9 -6.8 -1.3 -11.3 -0.5 -7.3 -0.3 -8.6 1.6 -11.7 3.3 -5.4 7.3 -8 37.1 -25.1 28.9 -16.6 75 -43.4 88.5 -51.4 22.7 -13.5 47 -26.1 55.2 -28.6 2.6 -0.8 7 -1.5 9.6 -1.5 10.6 0 13.9 3.8 33 38 4.1 7.4 12.3 21.8 18.2 32 5.9 10.2 15.2 26.4 20.8 36 5.5 9.6 11.7 20.3 13.8 23.7 2.2 3.4 3.9 6.7 3.9 7.2 0 0.5 -3.3 2.5 -7.2 4.5 -5.6 2.7 -7.6 3.2 -8.4 2.3 -0.6 -0.7 -8 -12 -16.4 -25.2 -8.4 -13.2 -18.1 -28.3 -21.5 -33.5 -3.4 -5.2 -12.1 -18.9 -19.5 -30.5 -19.7 -31.2 -20 -31.5 -21.6 -31.5 -0.9 0 -29.1 16.1 -62.7 35.9 -33.7 19.7 -68.8 40.2 -78.1 45.6 -20.7 11.9 -21.6 12.4 -21.6 14 0 0.7 2.5 6.4 5.5 12.8 3 6.3 5.5 12 5.5 12.6 0 0.8 -16.9 1.1 -56.5 1.1 l-56.5 0 0 -2.9z"/>
 </g>
 <g fill="#605f62">
  <path d="M236.6 444.9 c-2.8 -1.9 -6.7 -5.9 -8.7 -8.9 -3.9 -5.8 -26.1 -43.1 -33.7 -56.5 -7.2 -12.8 -22.2 -42.1 -22.2 -43.4 0 -0.7 3.8 -1.1 12.3 -1.1 l12.4 0 9.3 15.3 c5.1 8.3 13.4 21.9 18.3 30.1 10.4 17.1 8.9 16.4 23.3 10.6 12.2 -4.9 23.1 -11.2 39.1 -22.7 26.5 -19 37.3 -24.7 55.4 -29.1 14.7 -3.6 28.1 -4.2 99.2 -4.5 l68.7 -0.2 0 2.7 c0 3 3.1 2.5 -34 4.8 -32 2 -42.5 3.6 -51 7.6 -11.8 5.6 -53 28.3 -81.5 44.9 -14.4 8.4 -30.3 17.6 -35.5 20.5 -5.2 2.9 -16.7 9.7 -25.5 15 -22.4 13.6 -29.4 17 -35.7 17.7 -4.8 0.5 -5.8 0.2 -10.2 -2.8z m98.4 -53.9 c7.6 -2.2 13 -9.7 13 -18 0 -15.8 -17.8 -24.2 -30.6 -14.5 -4.3 3.3 -6.4 8.2 -6.4 15.3 0 4.9 0.5 6.6 2.9 9.8 5.3 7.4 12.4 9.9 21.1 7.4z"/>
 </g>
 <g fill="#737377">
  <path d="M322 354 c0 -0.5 0.7 -1 1.5 -1 0.8 0 1.5 0.5 1.5 1 0 0.6 -0.7 1 -1.5 1 -0.8 0 -1.5 -0.4 -1.5 -1z"/>
  <path d="M459 342 c0 -0.5 0.6 -1 1.4 -1 0.8 0 1.8 0.5 2.1 1 0.3 0.6 -0.3 1 -1.4 1 -1.2 0 -2.1 -0.4 -2.1 -1z"/>
  <path d="M491 340 c0 -0.5 0.7 -1 1.5 -1 0.8 0 1.5 0.5 1.5 1 0 0.6 -0.7 1 -1.5 1 -0.8 0 -1.5 -0.4 -1.5 -1z"/>
  <path d="M170 305.5 c0 -5.2 0.2 -5.5 2.4 -5.5 3.5 0 7.7 -1.8 10.4 -4.3 2.4 -2.2 6.2 -8.8 6.2 -10.7 0 -0.6 -3.1 -1 -7.7 -1 -9 0 -20.1 -1.6 -22 -3.2 -0.9 -0.7 -1.3 -4.7 -1.3 -14 0 -14.1 1 -18 5.8 -23.2 4.9 -5.2 9.4 -6.6 22.4 -6.6 11.4 0 11.7 0.1 13.7 2.6 1.9 2.4 2.1 4 2.1 17.5 l0 14.7 8.3 0.4 c4.5 0.2 8.5 0.2 9 0 0.4 -0.2 0.7 -3.8 0.7 -8 0 -4.2 0.4 -9.2 1 -11.1 1.6 -5.5 5.7 -10.6 10.9 -13.5 4.5 -2.4 5.8 -2.6 16.6 -2.6 6.4 0 12.5 0.5 13.6 1 1.8 1 1.9 2.3 1.9 21.9 0 18.2 -0.2 21 -1.7 22.2 -1.6 1.4 -3.8 1.4 -61.5 1.9 -0.5 0 -0.8 0.7 -0.8 1.5 0 0.8 -0.9 3.9 -2.1 7 -3.8 10.3 -14.7 18.5 -24.6 18.5 l-3.3 0 0 -5.5z m20.5 -45 l0 -12 -6.7 -0.3 c-7.8 -0.3 -12.3 1.5 -13.8 5.4 -1.1 2.9 -1.3 17.7 -0.3 18.8 0.4 0.4 5.2 0.5 10.7 0.4 l10.1 -0.3 0 -12z m62.3 -0.3 l0.3 -12.2 -7.6 0 c-6.8 0 -7.7 0.2 -10.7 2.9 -3.2 2.8 -3.3 3.2 -3.6 12 l-0.4 9 9.9 0.3 c5.4 0.2 10.3 0.3 10.8 0.2 0.6 0 1.1 -5.1 1.3 -12.2z"/>
  <path d="M58.6 303.4 c-0.9 -0.8 -1.6 -2.5 -1.6 -3.7 0.1 -6.5 8.4 -8.2 11.1 -2.3 2.5 5.5 -5.2 10.3 -9.5 6z"/>
  <path d="M73.5 303.3 c-1.9 -1.8 -1.4 -7.1 0.8 -8.5 3.6 -2.3 9.7 0.3 9.7 4 0 5.3 -6.9 8.2 -10.5 4.5z"/>
  <path d="M130.6 303.4 c-2.5 -2.4 -2 -7.1 0.8 -9 2.2 -1.3 2.9 -1.4 5.3 -0.2 3.5 1.7 4.5 7.4 1.7 9.5 -2.4 1.8 -5.9 1.6 -7.8 -0.3z"/>
  <path d="M12 300.4 c-1.9 -0.8 -4.8 -2.7 -6.3 -4.2 -5.2 -4.9 -5.7 -7 -5.7 -22.2 l0 -14 5 0 5 0 0 11.6 c0 16.3 2 19.3 12.7 19.4 5.6 0 6.3 -0.2 8.7 -3.1 2 -2.4 2.6 -4.2 2.6 -8.2 0.1 -2.9 0.2 -18 0.3 -33.7 l0.2 -28.5 5.8 -0.3 5.7 -0.3 0 27.6 0 27.5 15 0 15 0 0 -16.4 c0 -17.7 0 -17.6 5.5 -17.6 5.6 0 5.5 -0.4 5.5 21.4 0 14.8 -0.3 20.7 -1.3 22 -1.1 1.5 -3.8 1.8 -20.9 2.3 l-19.7 0.6 -0.6 2.6 c-2.2 8.9 -11.4 15.1 -22.4 15.1 -3.7 -0.1 -8.2 -0.8 -10.1 -1.6z"/>
  <path d="M105.5 283.3 c-2.2 -0.2 -4.5 -0.9 -5.2 -1.5 -1 -0.8 -1.3 -8.5 -1.3 -32.9 l0 -31.9 5.5 0 5.5 0 0 27.5 0 27.5 12 0 c6.6 0 12.3 0 12.8 0 0.4 0 0.9 -7.5 1.2 -16.7 l0.5 -16.8 5 0 5 0 0.3 21.1 c0.2 16.1 -0.1 21.4 -1 22.2 -1.4 1.1 -33.5 2.3 -40.3 1.5z"/>
 </g>
</svg>